<svg width="32" height="32" viewBox="0 0 32 32" fill="none" xmlns="http://www.w3.org/2000/svg">
<path d="M26.6663 16C26.6663 12.9333 25.333 10.2667 23.333 8.26667L22.933 3.6C22.6663 1.6 21.0663 0 18.933 0H13.0663C11.0663 0 9.33301 1.6 9.06634 3.6L8.66634 8.26667C6.66634 10.1333 5.33301 12.9333 5.33301 16C5.33301 19.0667 6.66634 21.8667 8.66634 23.7333L9.06634 28.4C9.33301 30.4 11.0663 32 13.0663 32H18.7997C20.933 32 22.533 30.4 22.7997 28.4L23.1997 23.8667C25.333 21.8667 26.6663 19.0667 26.6663 16ZM11.733 3.86667C11.733 3.2 12.3997 2.66667 13.0663 2.66667H18.933C19.5997 2.66667 20.133 3.2 20.2663 3.86667L20.533 6.26667C19.0663 5.73333 17.5997 5.33333 15.9997 5.33333C14.3997 5.33333 12.933 5.73333 11.5997 6.26667L11.733 3.86667ZM7.99967 16C7.99967 11.6 11.5997 8 15.9997 8C20.3997 8 23.9997 11.6 23.9997 16C23.9997 18.4 22.933 20.6667 21.1997 22.1333C19.8663 23.3333 17.9997 24 15.9997 24C11.5997 24 7.99967 20.4 7.99967 16ZM20.2663 28.1333C20.2663 28.8 19.5997 29.3333 18.933 29.3333H13.0663C12.3997 29.3333 11.8663 28.8 11.733 28.1333L11.4663 25.7333C12.7997 26.4 14.2663 26.6667 15.8663 26.6667C17.4663 26.6667 18.933 26.2667 20.2663 25.7333V28.1333Z" fill="#2314A7"/>
<path d="M17.0663 18.9333C17.333 19.2 17.733 19.3333 17.9997 19.3333C18.2663 19.3333 18.6663 19.2 18.933 18.9333C19.4663 18.4 19.4663 17.6 18.933 17.0667L17.333 15.4667V12C17.333 11.2 16.7997 10.6667 15.9997 10.6667C15.1997 10.6667 14.6663 11.2 14.6663 12V16C14.6663 16.4 14.7997 16.6667 15.0663 16.9333L17.0663 18.9333Z" fill="#2314A7"/>
</svg>
