<svg width="41" height="40" viewBox="0 0 41 40" fill="none" xmlns="http://www.w3.org/2000/svg">
<path fill-rule="evenodd" clip-rule="evenodd" d="M0.564209 20C0.564209 8.9543 9.5336 0 20.5979 0C31.6622 0 40.6316 8.9543 40.6316 20C40.6316 31.0457 31.6622 40 20.5979 40C9.5336 40 0.564209 31.0457 0.564209 20ZM14.7238 16.5685H10.1837V30.1866H14.7238V16.5685ZM15.0202 12.3522C14.9907 11.017 14.0342 10 12.4811 10C10.928 10 9.91261 11.017 9.91261 12.3522C9.91261 13.6598 10.898 14.7061 12.4222 14.7061H12.4512C14.0342 14.7061 15.0202 13.6598 15.0202 12.3522ZM31.0991 22.3737C31.0991 18.1908 28.8594 16.244 25.8718 16.244C23.4613 16.244 22.3821 17.5658 21.7795 18.493V16.5641H17.2389C17.2987 17.842 17.2389 30.1822 17.2389 30.1822H21.7795V22.5768C21.7795 22.1698 21.809 21.7638 21.929 21.4724C22.2572 20.6593 23.0043 19.8174 24.2585 19.8174C25.9021 19.8174 26.559 21.0662 26.559 22.8962V30.1819H31.0989L31.0991 22.3737Z" fill="white"/>
</svg>
