<svg width="24" height="24" viewBox="0 0 24 24" fill="none" xmlns="http://www.w3.org/2000/svg">
<path fill-rule="evenodd" clip-rule="evenodd" d="M12.1241 22.0761H12.1283C17.6608 22.0738 22.1605 17.5731 22.1627 12.0417C22.1638 9.36058 21.121 6.83951 19.2265 4.94288C17.332 3.04616 14.8125 2.00116 12.1282 2C6.59731 2 2.09585 6.50121 2.09365 12.0338C2.0929 13.8024 2.55496 15.5286 3.43309 17.0504L2.00952 22.2501L7.32894 20.8547C8.79457 21.6542 10.4447 22.0755 12.1241 22.0761ZM16.8402 14.2022C17.015 14.2867 17.1331 14.3438 17.1836 14.4279C17.2462 14.5325 17.2462 15.0345 17.0374 15.6202C16.8284 16.2059 15.8267 16.7404 15.345 16.8124C14.913 16.877 14.3664 16.9039 13.7658 16.713C13.4016 16.5975 12.9346 16.4432 12.3364 16.1849C9.9859 15.1699 8.39743 12.8918 8.09722 12.4612C8.07619 12.431 8.06148 12.4099 8.05327 12.399L8.05125 12.3963C7.91856 12.2193 7.02949 11.033 7.02949 9.80531C7.02949 8.6504 7.5968 8.04505 7.85793 7.76641C7.87582 7.74731 7.89228 7.72976 7.90701 7.71366C8.13683 7.46265 8.40848 7.39989 8.57562 7.39989C8.74275 7.39989 8.91008 7.40144 9.05616 7.40877C9.07418 7.40968 9.09293 7.40957 9.11232 7.40946C9.25843 7.4086 9.44059 7.40753 9.62028 7.83917C9.68941 8.00528 9.79057 8.25155 9.89725 8.51128C10.113 9.03653 10.3514 9.61687 10.3933 9.70085C10.456 9.82636 10.4978 9.97272 10.4142 10.1401C10.4017 10.1652 10.3901 10.1889 10.379 10.2115C10.3162 10.3397 10.27 10.434 10.1635 10.5584C10.1216 10.6073 10.0783 10.66 10.035 10.7127C9.94876 10.8178 9.86251 10.9228 9.7874 10.9976C9.66188 11.1227 9.53122 11.2583 9.67747 11.5093C9.82373 11.7603 10.3269 12.5814 11.0723 13.2462C11.8735 13.9609 12.5699 14.2629 12.9229 14.4161C12.9918 14.446 13.0476 14.4702 13.0886 14.4907C13.3392 14.6162 13.4855 14.5952 13.6318 14.4279C13.778 14.2606 14.2585 13.6958 14.4257 13.4448C14.5928 13.1939 14.76 13.2357 14.9898 13.3193C15.2196 13.4031 16.4523 14.0096 16.703 14.135C16.752 14.1596 16.7978 14.1817 16.8402 14.2022Z" fill="#2314A7"/>
</svg>
