<svg xmlns="http://www.w3.org/2000/svg" viewBox="0 0 140 70.94"><defs><style>.a{fill:#fff;}</style></defs><title>carers-trust-logo-white</title><path class="a" d="M3.19,23.73Q.22,21.21,0,16.37c0-.66,0-1.73,0-3.21s0-2.6,0-3.28A9.6,9.6,0,0,1,3.23,2.57,12.13,12.13,0,0,1,11.37,0a15,15,0,0,1,5.81,1.06,9.45,9.45,0,0,1,4.06,3.06,8.09,8.09,0,0,1,1.57,4.74.72.72,0,0,1-.24.55.79.79,0,0,1-.56.22H16.83a1.18,1.18,0,0,1-.75-.2,1.6,1.6,0,0,1-.42-.75,4.37,4.37,0,0,0-1.55-2.5,4.81,4.81,0,0,0-2.75-.71C8.63,5.47,7.2,7,7.11,10.06c0,.66,0,1.66,0,3s0,2.39,0,3.1q.15,4.59,4.26,4.59a4.77,4.77,0,0,0,2.75-.73,4.17,4.17,0,0,0,1.55-2.48,1.46,1.46,0,0,1,.4-.75,1.24,1.24,0,0,1,.77-.2H22a.79.79,0,0,1,.8.77,8.09,8.09,0,0,1-1.57,4.74,9.35,9.35,0,0,1-4.06,3.06,15.23,15.23,0,0,1-5.81,1.06Q6.16,26.24,3.19,23.73Z"/><path class="a" d="M22.8,25.64a.72.72,0,0,1-.24-.53.92.92,0,0,1,0-.33L31.09,1.42A1.43,1.43,0,0,1,32.55.36h5.69A1.43,1.43,0,0,1,39.7,1.42l8.49,23.36a1.22,1.22,0,0,1,0,.33.74.74,0,0,1-.24.53.72.72,0,0,1-.53.24H42.72a1.27,1.27,0,0,1-1.24-.8l-1.31-3.54H30.62l-1.31,3.54a1.26,1.26,0,0,1-1.24.8H23.33A.72.72,0,0,1,22.8,25.64Zm9.35-9.57h6.49L35.4,6.78Z"/><path class="a" d="M50.21,25.6a.87.87,0,0,1-.27-.64V1.31A.9.9,0,0,1,50.2.64a.87.87,0,0,1,.66-.27h10q4.82,0,7.53,2.19a7.46,7.46,0,0,1,2.71,6.16,7.76,7.76,0,0,1-1.18,4.34,7.91,7.91,0,0,1-3.26,2.77l4.92,8.89a1,1,0,0,1,.11.4.76.76,0,0,1-.22.53.71.71,0,0,1-.55.24H65.8a1.52,1.52,0,0,1-1.49-1L60.3,17H56.8v8a.87.87,0,0,1-.27.66,1,1,0,0,1-.67.26h-5A1,1,0,0,1,50.21,25.6Zm10.62-14a3.34,3.34,0,0,0,2.39-.78A2.85,2.85,0,0,0,64,8.68a3,3,0,0,0-.82-2.22,3.19,3.19,0,0,0-2.39-.84h-4v6Z"/><path class="a" d="M73.68,25.6a.87.87,0,0,1-.27-.64V1.31a.9.9,0,0,1,.26-.67.87.87,0,0,1,.66-.27H91.82a.9.9,0,0,1,.67.27.92.92,0,0,1,.27.67V4.92a.87.87,0,0,1-.27.66,1,1,0,0,1-.67.26H80v4.63H90.73a.9.9,0,0,1,.67.27.92.92,0,0,1,.27.67v3.32a.9.9,0,0,1-.27.67.92.92,0,0,1-.67.27H80v4.74H91.82a.9.9,0,0,1,.67.27.92.92,0,0,1,.27.67V25a.87.87,0,0,1-.27.66,1,1,0,0,1-.67.26H74.32A.87.87,0,0,1,73.68,25.6Z"/><path class="a" d="M95.62,25.6a.87.87,0,0,1-.27-.64V1.31a.9.9,0,0,1,.26-.67.87.87,0,0,1,.66-.27h10q4.81,0,7.53,2.19a7.46,7.46,0,0,1,2.71,6.16,7.76,7.76,0,0,1-1.18,4.34,7.91,7.91,0,0,1-3.26,2.77L117,24.72a1,1,0,0,1,.11.4.76.76,0,0,1-.22.53.71.71,0,0,1-.55.24h-5.14a1.52,1.52,0,0,1-1.49-1l-4-7.91h-3.5v8a.87.87,0,0,1-.27.66,1,1,0,0,1-.67.26h-5A1,1,0,0,1,95.62,25.6Zm10.63-14a3.34,3.34,0,0,0,2.39-.78,2.85,2.85,0,0,0,.82-2.17,3,3,0,0,0-.82-2.22,3.19,3.19,0,0,0-2.39-.84h-4v6Z"/><path class="a" d="M122.87,25.22a8.75,8.75,0,0,1-3.75-2.7,6.31,6.31,0,0,1-1.35-3.64.72.72,0,0,1,.24-.55.79.79,0,0,1,.56-.22h4.85a1.47,1.47,0,0,1,.71.15,2.54,2.54,0,0,1,.6.51,3.74,3.74,0,0,0,1.48,1.44,5.42,5.42,0,0,0,2.68.56,6.25,6.25,0,0,0,3-.6A1.85,1.85,0,0,0,133,18.51a1.61,1.61,0,0,0-.55-1.26,4.8,4.8,0,0,0-1.75-.87c-.8-.25-2-.54-3.46-.86a15.08,15.08,0,0,1-6.6-2.66,6.2,6.2,0,0,1-2.19-5.1,6.77,6.77,0,0,1,1.26-4A8.14,8.14,0,0,1,123.26,1a13.72,13.72,0,0,1,5.37-1,12.92,12.92,0,0,1,5.56,1.11,9.46,9.46,0,0,1,3.61,2.77,5.87,5.87,0,0,1,1.33,3.26.76.76,0,0,1-.22.56.72.72,0,0,1-.55.24h-5.1A1.39,1.39,0,0,1,132,7.28,2.24,2.24,0,0,0,130.89,6a4.47,4.47,0,0,0-2.26-.53,4.28,4.28,0,0,0-2.37.55,1.79,1.79,0,0,0-.84,1.6,1.85,1.85,0,0,0,1.09,1.66,16.35,16.35,0,0,0,4.08,1.22A23.25,23.25,0,0,1,136,12a6.87,6.87,0,0,1,3,2.41,6.72,6.72,0,0,1,1,3.74,6.76,6.76,0,0,1-1.42,4.3,8.91,8.91,0,0,1-3.94,2.79,16.1,16.1,0,0,1-5.76,1A16,16,0,0,1,122.87,25.22Z"/><path class="a" d="M8.83,57a.87.87,0,0,1-.27-.66V37.72H2.15a.9.9,0,0,1-.67-.26.84.84,0,0,1-.28-.66V32.72a.9.9,0,0,1,.27-.67.92.92,0,0,1,.67-.27H21.93a.9.9,0,0,1,.67.27.92.92,0,0,1,.27.67V36.8a.87.87,0,0,1-.27.66,1,1,0,0,1-.67.26H15.51V56.38a.87.87,0,0,1-.27.66,1,1,0,0,1-.67.26H9.51A1,1,0,0,1,8.83,57Z"/><path class="a" d="M25.77,57a.87.87,0,0,1-.27-.64V32.72a.9.9,0,0,1,.26-.67.87.87,0,0,1,.66-.27h10q4.81,0,7.53,2.19a7.46,7.46,0,0,1,2.71,6.16,7.76,7.76,0,0,1-1.18,4.34,7.91,7.91,0,0,1-3.26,2.77l4.92,8.89a1,1,0,0,1,.11.4.76.76,0,0,1-.22.53.71.71,0,0,1-.55.24H41.36a1.52,1.52,0,0,1-1.49-1l-4-7.91h-3.5v8a.87.87,0,0,1-.27.66,1,1,0,0,1-.67.26h-5A1,1,0,0,1,25.77,57ZM36.39,43a3.34,3.34,0,0,0,2.39-.78,2.85,2.85,0,0,0,.82-2.17,3,3,0,0,0-.82-2.22A3.19,3.19,0,0,0,36.39,37h-4v6Z"/><path class="a" d="M52.87,55.14c-2-1.68-2.93-4.19-2.93-7.54V32.72a.9.9,0,0,1,.26-.67.87.87,0,0,1,.66-.27h5a.94.94,0,0,1,.68.27.92.92,0,0,1,.27.67v14.8a4.77,4.77,0,0,0,1.07,3.39A4.06,4.06,0,0,0,61,52,4,4,0,0,0,64,50.89a4.75,4.75,0,0,0,1.07-3.37V32.72a.9.9,0,0,1,.27-.67.92.92,0,0,1,.67-.27h5a.9.9,0,0,1,.67.27.92.92,0,0,1,.27.67V47.59c0,3.35-1,5.87-2.92,7.54S64.39,57.64,61,57.64,54.83,56.81,52.87,55.14Z"/><path class="a" d="M78.83,56.63a8.75,8.75,0,0,1-3.75-2.7,6.31,6.31,0,0,1-1.35-3.64.72.72,0,0,1,.24-.55.79.79,0,0,1,.56-.22h4.85a1.47,1.47,0,0,1,.71.15,2.54,2.54,0,0,1,.6.51,3.74,3.74,0,0,0,1.48,1.44,5.42,5.42,0,0,0,2.68.56,6.25,6.25,0,0,0,3-.6,1.85,1.85,0,0,0,1.06-1.66,1.61,1.61,0,0,0-.55-1.26,4.8,4.8,0,0,0-1.75-.87c-.8-.25-2-.54-3.46-.86a15.08,15.08,0,0,1-6.6-2.66,6.2,6.2,0,0,1-2.19-5.1,6.77,6.77,0,0,1,1.26-4,8.14,8.14,0,0,1,3.57-2.75,13.56,13.56,0,0,1,5.38-1,12.92,12.92,0,0,1,5.56,1.11,9.46,9.46,0,0,1,3.61,2.77,5.87,5.87,0,0,1,1.33,3.26.76.76,0,0,1-.22.56.72.72,0,0,1-.55.24h-5.1A1.39,1.39,0,0,1,88,38.69a2.24,2.24,0,0,0-1.13-1.29,4.47,4.47,0,0,0-2.26-.53,4.28,4.28,0,0,0-2.37.55,1.79,1.79,0,0,0-.84,1.6,1.85,1.85,0,0,0,1.09,1.66,16.49,16.49,0,0,0,4.08,1.22A23.25,23.25,0,0,1,92,43.45a6.87,6.87,0,0,1,3,2.41,7.43,7.43,0,0,1-.45,8,8.91,8.91,0,0,1-3.94,2.79,17.85,17.85,0,0,1-11.78-.06Z"/><path class="a" d="M104.49,57a.87.87,0,0,1-.27-.66V37.72H97.8a.9.9,0,0,1-.67-.26.87.87,0,0,1-.27-.66V32.72a.9.9,0,0,1,.27-.67.92.92,0,0,1,.67-.27h19.79a.9.9,0,0,1,.67.27.92.92,0,0,1,.27.67V36.8a.87.87,0,0,1-.27.66,1,1,0,0,1-.67.26h-6.42V56.38a.87.87,0,0,1-.27.66,1,1,0,0,1-.67.26h-5.07A1,1,0,0,1,104.49,57Z"/><path class="a" d="M4,63.29l-.42.22c0,.05,0,.09,0,.14l3.11.05h.16s.07-.06.11-.07a10.26,10.26,0,0,1,1.92-.42c1.44.06,2.87.12,4.31.14,1.87,0,3.74,0,5.61,0,.75,0,1.5,0,2.25-.06a21.87,21.87,0,0,1,2.56,0c.77.08,1.52,0,2.27,0,1,0,2-.12,3-.07a23.49,23.49,0,0,0,2.37-.11c.2,0,.41,0,.61,0A4,4,0,0,0,33,63.12a4,4,0,0,1,1.19.06v0c.21,0,.44,0,.49-.29,0,0,.16,0,.24,0h0c.2.44.59.31,1,.27h0c0,.07,0,.15,0,.22s0,.06,0,.07,0,0,0-.08l.63-.22,1.85.15s0,.05,0,.07l-.23.08s0,.13.09.13A2.07,2.07,0,0,0,40,63a.39.39,0,0,1,.39-.11A4,4,0,0,0,42,63a6,6,0,0,1,1.92.11l-1.94.29.25.26-.28.08s.06.06.08.06a6.28,6.28,0,0,1,.75,0,.82.82,0,0,0,.76-.26,1,1,0,0,1,1.27.09c.13.18.25.18.37.06.34-.34.35-.37.75-.45L45.52,63a4.35,4.35,0,0,1,1.42-.11c.23,0,.52-.11.67.16h0l-1.35.08c1.75.26,3.53.1,5.32.3l-.34.17.48.09v.08l-.89.18v0H52c.08,0,.23,0,.24-.07.17-.41.56-.29.88-.3.64,0,1.27,0,1.91,0,.2,0,.39,0,.59,0v-.12H54.06a3.25,3.25,0,0,1,2.11,0h.14l.15,0,.06.09-.07-.08a1.87,1.87,0,0,1,.62-.2,14.55,14.55,0,0,1,2,.17l-.57.06a.38.38,0,0,1,0,.1l1.88.16c-.06-.17-.1-.26-.16-.42h2s0,.07,0,.11H60.74l0,.13.43.25a2.28,2.28,0,0,1-1.14.12c-.23,0-.35,0-.34.35l1.69-.08h0c0,.28-.26.29-.5.29a2.62,2.62,0,0,0-1,.12h1.33c-.32.33-.71.22-1.07.26L59.3,65h0l-.38-.24.35-.25H52.77c1.56.25,3.16,0,4.72.18v.13a6.8,6.8,0,0,1-.9.06,19.89,19.89,0,0,1-2.56,0,.82.82,0,0,0-.33.07h0l-.42,0H53l-2.36,0a1,1,0,0,0-.36.13,5.64,5.64,0,0,0-.8-.1c-1.07,0-2.13,0-3.19,0-.27,0-.35.17-.54.2s-.16-.1-.25-.1l-4.46,0c-.09,0-.18.14-.26.21l-.51.2c.35,0,.46,0,.5-.21h1c0,.06,0,.11,0,.17h.06l0-.17h.57l-.14.21h.06a1.72,1.72,0,0,0,.07-.21c.46-.2.91,0,1.37,0h0a5.15,5.15,0,0,1,1.17-.07,1.5,1.5,0,0,0,.92-.1l.37.16h.15a6.19,6.19,0,0,1,1.05,0c.3,0,.56.13.82-.08.06,0,.2,0,.3,0a3,3,0,0,0,1.83-.1,6.54,6.54,0,0,0,2.29.21h0c0,.24-.22.26-.45.25-.91,0-1.82,0-2.74,0-.61,0-1.21,0-1.82.11,1.42.12,2.86,0,4.28.17a66,66,0,0,1-6.89,0l.34-.12s-.06-.09-.07-.08c-.21.08-.51,0-.63.27,0,.08-.24.15-.34.13-.46-.08-1,.22-1.38-.29l-1.15,0,0,.07.57.27c-.44,0-.79.11-1.15.12s-.37-.13-.2-.36l.28.12h0l-.28-.12h-.67l0,.13.25.16c-.06,0-.1.08-.15.08L37,66.33a6.09,6.09,0,0,0-.73.1h0c-.49,0-1-.09-1.48-.08s-1.23.07-1.84.11l-1.13.1c.17.11.24.19.3.19,1,0,2,0,2.92-.08a4.57,4.57,0,0,0,.72-.14h0l.22.26H34.34v.12l1.15.06c-1.61.42-3.29.2-4.91.42v.15h.88l.41.06v.45l-1.63.11s0-.07,0-.11L31.49,68s0,0,0-.08a9.36,9.36,0,0,0-1.59,0,1.55,1.55,0,0,1-1.09-.11c0,.16,0,.26,0,.43l-.47-.16h0a12.35,12.35,0,0,1-2.78.25L21,68.57c-.5,0-1,0-1.5,0s-.83.06-1.25.08h0a.66.66,0,0,0-.69,0,1.24,1.24,0,0,1-.65.1l-8.57-.13a6.23,6.23,0,0,1-1.15-.14c-.34-.07-.71-.15-.68-.61,0-.06-.23-.18-.36-.18a9.77,9.77,0,0,0-1.08.06l-.4,0L3.81,68a5,5,0,0,1-.57-.88,4.59,4.59,0,0,1-.15-1l.26-.12S3.3,66,3.27,66c-.44,0-.72-.14-.81-.58-.09-.21-.32-.38-.42-.58s-.44-.68-.38-1a.71.71,0,0,0-.25-.72,7.78,7.78,0,0,0,1.94,0,.6.6,0,0,1,.6.2Zm27.91.25h0l0,0Zm6.06,2,.18-.08-.05-.06-.13.14h-.21c.31-.25,1.17-.38,1.29-.17l-.35.07.56.23s0,.08,0,.12L38.13,66h1.53c-.5-.2.12-.59-.16-.75H37.14l.58.33Zm3.65-2.13h0l.24-.2h-.7A4.48,4.48,0,0,0,41.57,63.45Zm4.43.22h3.47c-1-.08-2-.09-3.07-.08a1.83,1.83,0,0,0-.39.09Zm6.16.87-1.35,0H48.22c.93.07,1.86.08,2.79.07.38,0,.76-.07,1.15-.09ZM33.31,67v-.16l-6.75.22v.09Zm-3.46.56s0-.07,0-.11h-2.8v.11Zm-6.3,0a6.87,6.87,0,0,0,3.08-.11Zm35.83-3.49c-.59-.37-.68-.36-1.21,0C58.56,64.42,58.91,64.23,59.38,64.09Zm-3-.19c.44,0,.69.64,1.2.32l-.15-.32ZM14.1,68.57v.05h2.7v-.05Zm11.44-1.35s0-.08,0-.13c-.32,0-.65.06-1,.07s-.62,0-.92,0A8.13,8.13,0,0,0,25.54,67.22Zm9.63-1.74a1.21,1.21,0,0,0-.1-.16H33.84v.07Zm-30,.57,1.1,0A1,1,0,0,0,5.14,66.05Zm47.22-1.78,0-.06h-1.3v.06ZM22.08,67.73s0-.09,0-.14l-.49,0v.12Zm8.54-2.26v0h.95v0Zm16.87-.85v-.05h-.8v.05ZM6,65.09l.38-.39H5.83C5.87,64.82,5.91,64.91,6,65.09Zm23.81-1.43,0-.07H29v0Zm27.71-.15v.12a1.09,1.09,0,0,0,.25,0,.65.65,0,0,0,.2-.05s0-.07,0-.11ZM31.15,66.66l0-.1-.42,0s0,.06,0,.08Zm12.36-2.47a.66.66,0,0,1,0-.14l-.57,0v.08ZM53.87,64s0-.07,0-.11l-.53,0s0,.07,0,.1Zm-31.15,3.2s0,0,0,0H22.2v0Zm14.51-3.93,0,.06a.94.94,0,0,0,.15.06l.23,0s0-.06,0-.09Zm-8,3.53c.05-.08.12-.13.11-.16s-.09-.08-.14-.09-.1,0-.15.06Zm.92-.18c-.12,0-.17-.09-.19-.08a1.67,1.67,0,0,0-.16.12Zm26.08-2.4v0l-.39,0v.06ZM2.42,63.57s0,.06,0,.08l.42,0v0ZM55,64v-.08h-.38V64ZM20.7,67.6l.19.06,0,0a.53.53,0,0,0-.12,0Zm26.42-3.19s0-.06,0-.1l-.23.06ZM29.8,65.52s0,0,0,0h-.19v0Zm3.45-2,.12-.07a1.19,1.19,0,0,0-.09-.15s-.08,0-.08.07A.53.53,0,0,0,33.25,63.56Zm13.15,2-.07.07s.06,0,.09,0a.18.18,0,0,0,.08-.07Zm-11.49.52s0,0,0,0l-.06,0a.19.19,0,0,0,0,.07Zm-8.81.6H26l.06,0,.06,0ZM55.65,64l.05,0-.07,0s0,0,0,0Zm-1.13.31.09-.06s-.07,0-.11,0-.06,0-.09,0Zm.7-.08-.06,0h.11Zm-22.5-.71h.05l0,0Zm-1.54,0-.08,0,0,0,.08,0Zm10,1.25h-.09l0,0A.05.05,0,0,1,41.15,64.74ZM30.76,63.62h-.1s0,0,.05,0Zm15.21,1a.06.06,0,0,0,0,0s0,0-.06,0,0,0,0,.06Zm-14,1.5-.05,0,0,.09,0,0A.32.32,0,0,0,31.94,66.12Zm12-.37v0h-.06v0Zm3.2-.07s0,0,0-.05l0,0,0,.07Zm-20.77-2v0l.06,0Zm10.32-.34,0,0,0,0Zm-1.26,2.74,0,0,0,0Zm9.41-2h0v0h0S44.79,64.09,44.79,64.08Z"/><path class="a" d="M117.42,67.67a2.28,2.28,0,0,0-1.39,0,2.1,2.1,0,0,1-1.51-.39.5.5,0,0,0-.37-.09,3.4,3.4,0,0,0-.63.32l1.14.38h0l-4.3-.71-.54-.09c-.11,0-.28,0-.32-.07-.33-.5-.93-.41-1.42-.54h0c-.5-.11-1-.23-1.51-.33s-1.14-.2-1.75-.3l.29-.29-.77-.09h0c-.64-.13-1.27-.28-1.92-.37s-1.38-.13-2.07-.2l-.13.13.35.12a.14.14,0,0,0,0,.06h-.43c-.19-.18.22-.46-.14-.61h0c-.21.32-.52.24-.83.2s-.88-.09-1.35-.14c0,.18,0,.26.06.39-.48,0-.93-.07-1.37-.12-.09,0-.16-.12-.23-.19v0l.56-.09,0-.14c-.31.11-.66-.24-.95.1h0l-.29.13h0l-1.11.06a.5.5,0,0,1,0-.12l.42-.13s0-.07,0-.1-.26,0-.38,0-.25-.08-.37-.12a1.44,1.44,0,0,1-1.64.22,4.38,4.38,0,0,0-1.22-.31c-.16,0-.31-.07-.46-.1H90.4l-.13.36-.65.09c.32.15.6.39.95.17h0a.21.21,0,0,0,.11,0h0l.22.15a2.42,2.42,0,0,1-1.2.08c-.43,0-.86-.11-1.41-.18l.85-.06c0-.12,0-.23,0-.37l-.68,0v0H90a1.25,1.25,0,0,0-1-.28c-.29,0-.47,0-.55-.23a4.48,4.48,0,0,1-.76.22c-.5,0-1,0-1.5,0h0a1.88,1.88,0,0,0-1.09-.26c-.31,0-.69.09-.89-.31,0-.1-.36-.09-.6-.14l.78-.28-.68-.19a2.06,2.06,0,0,1,2,.49c0-.14.06-.24.09-.39a1.29,1.29,0,0,1,.29,0c2,.11,4,.22,6,.36a12.26,12.26,0,0,1,3.36.45.25.25,0,0,0,.19,0c.46-.25.91,0,1.36,0,.2,0,.44.12.6,0a1.62,1.62,0,0,1,1.24.1,2.42,2.42,0,0,0,.58.13,8.37,8.37,0,0,1,2.23.23,3.64,3.64,0,0,0,.67,0h0c.13,0,.27-.1.38-.07a9,9,0,0,0,2.54.34,5.31,5.31,0,0,1,.87.16,2.09,2.09,0,0,0,1.06,0,3.64,3.64,0,0,1,1.22.12c-.2-.38-.58-.25-.84-.36a4,4,0,0,0-.62-.17h0c.21-.07.49.14.68-.15,0-.07.34,0,.51,0,.56.09,1.12.21,1.68.31s1.14.19,1.71.27a1.28,1.28,0,0,0,.38,0h0a2.67,2.67,0,0,0,.75.22.93.93,0,0,1,.78.28c.06.07.23.07.35.11s.39.18.59.27l-.24.06a.64.64,0,0,1,0,.07l.24,0a1,1,0,0,1,0,.17l-.16,0,.06.08.08-.12a.76.76,0,0,1,0-.15.27.27,0,0,0,0-.12c.39-.45.88-.15,1.33-.13.08,0,.21.19.21.29,0,.33.26.33.51.34h0l.59.41h0l.72.42-.89.16.69.56Zm-7.81-2.51a.68.68,0,0,0,0-.14h0s0,.11,0,.16Zm-23-1.38h0ZM90.1,64,90,64l.08,0v0Zm-1.38-.38h0l0,0Zm16.22,1.72h0l-.14-.09,0,.07Zm7.28,1.61.15.15-.13.23-.2-.09a.24.24,0,0,0,0,.08h.24c.27.29.63.11.94.13h0l-.82-.35-.15-.15.3-.14h0l-.3-.08a.34.34,0,0,0-.15.07ZM92.7,63.68l.08.07s0,0,0-.06h-.11l-.57-.14s0,.06,0,.09Zm12.87,2c.42.2.83.47,1.35.23Zm-13-1.25v.09h.7V64.4Zm22.32,2.39s0,.08,0,.13l.62.17s0-.1,0-.14ZM84.71,63.08s0,.06,0,.08l.35,0a.17.17,0,0,1,0-.07Zm26.09,4a.13.13,0,0,0,0,.06h.44s0-.07,0-.1Zm-.69-.22-.11,0s.07.09.11.11.09,0,.14-.06A.71.71,0,0,1,110.11,66.84ZM95.53,64.55s0-.08,0-.12l-.22,0s0,.06,0,.09Zm-11-.93.12,0a.28.28,0,0,0,0-.09s-.05,0-.06,0A.56.56,0,0,0,84.54,63.62Zm16.09.75-.09-.05h-.06s0,.07,0,.07Zm-7.43-.29s0,0,0,0l-.06,0,.08.06Zm18,1.15-.11,0s0,0,0,0l.11,0S111.22,65.25,111.23,65.23Zm.5.11v0l.05,0Zm1.32,1.71h0l0,.07,0,0A.1.1,0,0,0,113.05,67.05Zm3,0-.06,0,.08,0,0,0Zm-1.17-1.46.05,0v0Zm-1.73,0,0,0,0,0-.06,0Zm-9.89-.6,0,0h0Zm-13-1.53v0l0,0Zm25.8,2.82v0h0Zm-6-1.24,0,0,0,0ZM99.34,64.2l-.06,0s0,0,0,0h.06Zm-5.77-.06v0l0,0Zm8.85.43,0,0,.1,0,0,0A.24.24,0,0,0,102.42,64.57Zm-5,.26h0l.06,0S97.42,64.84,97.42,64.83Zm17.87,2.65-.07,0s0,0,0,0A.08.08,0,0,1,115.29,67.48ZM89,63.89v0l-.06,0Z"/><path class="a" d="M101.38,67.4a4.26,4.26,0,0,1,.94-.07l6.42.9a2,2,0,0,0,.23,0s0-.08,0-.12l-2.35-.43.25-.26h0c.52.06,1,.11,1.56.18,1.12.17,2.25.35,3.37.54.54.09,1.07.23,1.6.3.35,0,.72,0,1.08,0,.69.1,1.38.24,2.13.37l-.22-.29a1.58,1.58,0,0,1,1.39.26c.26.14.5.31.83.51a2.24,2.24,0,0,1-.66,1.62,19.28,19.28,0,0,0-4.12-.82c-.56-.08-1.11-.25-1.67-.33-1.1-.17-2.21-.32-3.31-.48a2.91,2.91,0,0,1-1.27-.43h0c-.48.2-.56.14-1-.14a3.21,3.21,0,0,0-1-.23h0L102.2,68c-1.1-.15-2.21-.29-3.31-.52l5.66.5c-.27-.09-.44-.17-.61-.21s-.37,0-.54,0c-.66-.11-1.32-.24-2-.36Zm8.64.88h-.32s0,.06,0,.09l.29-.11h.07l0,0A.27.27,0,0,1,110,68.28Zm3,.61-.31-.08s0,0,0,0l.33,0c.17.17.32.11.48,0l.12,0-.11,0Zm1,0a1.09,1.09,0,0,0,0,.18,1.09,1.09,0,0,0,.9,0Zm1.51.27s0,0,0,.06h.24v0Zm.75.17,0,0h0Z"/><path class="a" d="M42.1,66.68a17.19,17.19,0,0,0,2.87,0c.75,0,1.51,0,2.26,0,.59,0,1.18-.06,1.77-.08l2.39,0a1.21,1.21,0,0,1,.63.16L41.15,67l.17-.3h.79Z"/><path class="a" d="M52.75,65.28c.77-.07,1.53,0,2.31-.07a9.08,9.08,0,0,1,2.32.14,16.85,16.85,0,0,1-2.13.19,20.29,20.29,0,0,0,3.26.13,30.85,30.85,0,0,1-6,0h2.34a1.24,1.24,0,0,0-1.09-.17,1,1,0,0,1-1-.23Z"/><path class="a" d="M98.35,65.05h1l-.28.21c.31.07.58.16.85.2.43.06.86.08,1.29.14.08,0,.13.13.21.21a9.08,9.08,0,0,1-3.15-.32c-.17-.19.41-.24.1-.45Z"/><path class="a" d="M54.55,62.79a3.73,3.73,0,0,0-1.49-.08c0,.28-.1.56.31.72a1.77,1.77,0,0,1-1.39,0c.23-.21.7-.15.61-.52,0-.12-.26-.21-.41-.32a12.85,12.85,0,0,1,3.27,0l-.9.17Z"/><path class="a" d="M59.09,65.67h3.48c0-.15-.07-.24-.1-.36a3.47,3.47,0,0,1,2,.1l-1.54.06v.14l2,.08v.06H59.1A.19.19,0,0,1,59.09,65.67Z"/><path class="a" d="M80.74,64.21l-1-.37c.41-.09.87-.05.77-.56l-.85-.2a4.32,4.32,0,0,1,2.36.07,1,1,0,0,1-.69.16c-.53-.05-.53,0-.55.43C80.76,63.86,80.75,64,80.74,64.21Z"/><path class="a" d="M33.21,67.92l-1.05-.18a5,5,0,0,1,2.88-.2,9.33,9.33,0,0,1-1.11.46,2.28,2.28,0,0,1-.72-.08Zm.72-.09a.17.17,0,0,0,0,0l-.05,0,0,.09Z"/><path class="a" d="M97.8,67a1.91,1.91,0,0,1,.5-.12c.87.08,1.74.17,2.61.28a1.94,1.94,0,0,1,.47.21h0A17.2,17.2,0,0,1,97.81,67Z"/><path class="a" d="M93.78,67.2,89,66.91s0-.08,0-.13l4.77.28Z"/><path class="a" d="M61.86,65.42H58c-.07,0-.13-.08-.28-.18h4.13C61.85,65.3,61.86,65.36,61.86,65.42Z"/><path class="a" d="M52.5,66.56h5.9v.09H52.5Z"/><path class="a" d="M106.88,67.39a2.54,2.54,0,0,1-1.59,0c-.43-.1-.89-.08-1.34-.21l.46-.2h0a4.56,4.56,0,0,1,1.8.28l-.11,0,.1,0c.23,0,.46.07.69.09Zm-2-.21v.07h.21v-.07Z"/><path class="a" d="M66.78,65.29h4.48A17.6,17.6,0,0,1,66.78,65.29Z"/><path class="a" d="M74.46,62.92c-.42.09-.84.39-1.24-.08-.08-.09-.33-.07-.5-.16h2.14l0,.12-.44.13-.08-.08-.05,0Z"/><path class="a" d="M44.41,67.26a29,29,0,0,1,3.19-.07A8.23,8.23,0,0,1,44.41,67.26Z"/><path class="a" d="M39.32,67.51l-3.62.15a.76.76,0,0,0,0-.15A20,20,0,0,1,39.32,67.51Z"/><path class="a" d="M88.22,66.79a4.75,4.75,0,0,1-2.61-.23A19.2,19.2,0,0,1,88.22,66.79Z"/><path class="a" d="M95.17,66.66a7.76,7.76,0,0,0,1.07.06A3.2,3.2,0,0,1,97.8,67h0a12.12,12.12,0,0,1-2.48-.16s-.1-.13-.16-.21Z"/><path class="a" d="M88.35,62.71a6,6,0,0,1,1.32-.16,5.22,5.22,0,0,0,1.93,0l.06.11c-.09.07-.19.21-.28.21-.48,0-.95-.08-1.42-.11s-1.08,0-1.63-.05Z"/><path class="a" d="M43.53,66.42c.36,0,.72,0,1.08,0,.52,0,1-.1,1.56-.13a1.63,1.63,0,0,1,.64.11A13.34,13.34,0,0,1,43.53,66.42Z"/><path class="a" d="M83.52,66.66a1.24,1.24,0,0,1-.39,0,1.66,1.66,0,0,0-1.31-.12c-.1,0-.28-.06-.42-.15a7.51,7.51,0,0,1,2.51.15l-.39.15,0,0Z"/><path class="a" d="M57.08,67.08a7.81,7.81,0,0,1-2.46,0Z"/><path class="a" d="M50.66,67.41l-2.08-.17v-.08H51.3l-.65.26Z"/><path class="a" d="M66.18,64.39H63v-.07h3.17A.64.64,0,0,0,66.18,64.39Z"/><path class="a" d="M37.74,66.68a2.65,2.65,0,0,1,.68-.21,11.27,11.27,0,0,1,2.08.2H37.74Z"/><path class="a" d="M37.1,66.69a.51.51,0,0,1,.65,0h0c.21,0,.43.1.64.13s.45,0,.68,0a2.47,2.47,0,0,1-2-.16Z"/><path class="a" d="M91.35,66.53a3.25,3.25,0,0,1,1.88,0h0a3.78,3.78,0,0,1-1.89,0Z"/><path class="a" d="M50.19,66.39H47.48V66.3h2.71Z"/><path class="a" d="M76.21,65.46h1.73A2.56,2.56,0,0,1,76.21,65.46Z"/><path class="a" d="M64.53,64.73H63.09v-.11h1.44Z"/><path class="a" d="M57.25,62.81l-1.06-.17s0,0,0,0c.4,0,.8,0,1.2,0,.09,0,.19.13.26.21s0,.1-.08.15l-.32-.16h.12l0-.06Z"/><path class="a" d="M96.34,67.41a3,3,0,0,1,1.94.15Z"/><path class="a" d="M91.36,66.52H89.73a1.94,1.94,0,0,1,1.62,0Z"/><path class="a" d="M76,63.58h1.12c.28,0,.34.16.16.44C77,63.48,76.5,63.75,76,63.58Z"/><path class="a" d="M49.7,62.82l.83.15a.28.28,0,0,1,0,.09H49.15s0-.05,0-.07l.57-.17Z"/><path class="a" d="M73.84,65.47a1,1,0,0,1,1.16,0A2.28,2.28,0,0,1,73.84,65.47Z"/><path class="a" d="M93.64,65.12l-1,0C93,64.74,93,64.74,93.64,65.12Z"/><path class="a" d="M96.11,65.27c-.38.15-.38.15-.94,0,.43-.27.43-.27.94,0Z"/><path class="a" d="M42.87,62.44l1.19.16s0,.07,0,.11l-1.2-.11A.88.88,0,0,0,42.87,62.44Z"/><path class="a" d="M86.81,66.27l-1.22-.06C86,66,86,66,86.81,66.27Z"/><path class="a" d="M60.73,66.62H59.08v-.05h1.65Z"/><path class="a" d="M33,62.58l1,.31c-.46,0-.8.14-1-.15Z"/><path class="a" d="M30.78,63c.1-.18-.09-.49.32-.47.07,0,.18.13.18.2C31.28,63.07,31,63,30.78,63Z"/><path class="a" d="M69.17,62.73l-1.23.07v-.13a1.77,1.77,0,0,1,1.22.06Z"/><path class="a" d="M87.51,64.88l-1.21-.14C86.7,64.76,87.13,64.55,87.51,64.88Z"/><path class="a" d="M35,62.82H34.9l-.46-.22a.5.5,0,0,0,0-.12l1,.11c-.18.09-.31.15-.44.23Z"/><path class="a" d="M70.29,64.34h1.08s0,0,0,.08a.87.87,0,0,1-.31.07c-.27,0-.53-.06-.8-.09A.13.13,0,0,0,70.29,64.34Z"/><path class="a" d="M62.42,63.77l-.91.11C61.72,63.54,61.77,63.53,62.42,63.77Z"/><path class="a" d="M90.81,65.93c.53-.18.53-.18.86.24Z"/><path class="a" d="M78,62.44l.86.13a.5.5,0,0,0,0,.12L78,62.54S78,62.5,78,62.44Z"/><path class="a" d="M63.83,66.27H62.3V66.2h1.56Z"/><path class="a" d="M74.43,65.82l.81,0s0,.08,0,.12H74.4Z"/><path class="a" d="M94.66,63l1-.21C95.34,63.18,95.3,63.19,94.66,63Z"/><path class="a" d="M69.16,62.73a1.4,1.4,0,0,1,1.26,0h0l-1.26,0Z"/><path class="a" d="M41,67.3h1.3a2,2,0,0,1-1.27.09S41,67.34,41,67.3Z"/><path class="a" d="M58.46,66.28h-1v-.1h1A.34.34,0,0,1,58.46,66.28Z"/><path class="a" d="M53.9,66.19H55v.09l-1.08.07A.86.86,0,0,0,53.9,66.19Z"/><path class="a" d="M42.12,66.67l-.47-.2.61,0,.53,0-.69.22Z"/><path class="a" d="M70.17,63.71H71C70.71,63.91,70.71,63.91,70.17,63.71Z"/><path class="a" d="M94.17,66.59c.22,0,.46-.11.72.2l-.73-.07A.53.53,0,0,0,94.17,66.59Z"/><path class="a" d="M37.88,67.89H36.79v-.08h1.09Z"/><path class="a" d="M96.91,66.19c.3,0,.48,0,.66,0s.1.11.14.17,0,.07-.08.08-.18,0-.1-.13Z"/><path class="a" d="M71.42,66.17l.82.07s0,.09,0,.13l-.81-.05Z"/><path class="a" d="M92.29,64.92a.58.58,0,0,1-.84,0l.85,0Z"/><path class="a" d="M55.34,67.52h-1v-.08h.95A.22.22,0,0,0,55.34,67.52Z"/><path class="a" d="M72.84,64h-.79C72.33,63.83,72.33,63.83,72.84,64Z"/><path class="a" d="M73.05,65.89H72v-.06h1Z"/><path class="a" d="M61.36,62.71H60.19a1.1,1.1,0,0,1,1.17,0Z"/><path class="a" d="M75.76,65.92l.78,0v.1h-.79A.62.62,0,0,1,75.76,65.92Z"/><path class="a" d="M42.66,67.31h1.09s0,.07,0,.07H42.65A.17.17,0,0,0,42.66,67.31Z"/><path class="a" d="M69.14,64.4h-1v-.06h1Z"/><path class="a" d="M54.54,62.8l.24.19,0,.1L53.81,63s0,0,0-.06l.73-.13Z"/><path class="a" d="M95.72,67.3h-1.3c0-.06,0-.12,0-.18l1.27.21Z"/><path class="a" d="M72.14,64.37h.68C72.5,64.52,72.5,64.52,72.14,64.37Z"/><path class="a" d="M108.1,66.78l.82.12,0,.15-.8-.19S108.1,66.81,108.1,66.78Z"/><path class="a" d="M68.23,64.67l-.65.08s0-.1,0-.14l.66,0S68.23,64.64,68.23,64.67Z"/><path class="a" d="M44.9,63.1h-.54s0-.08,0-.12h.53s0,0,0,0S44.92,63,44.9,63.1Z"/><path class="a" d="M94.61,65.25H93.9v-.08h.72A.25.25,0,0,0,94.61,65.25Z"/><path class="a" d="M65.06,63.8l-.91,0s0-.08,0-.12l.91,0A.62.62,0,0,0,65.06,63.8Z"/><path class="a" d="M54,67.17l-.86,0C53.5,67.05,53.5,67.05,54,67.17Z"/><path class="a" d="M105.65,64.29l1.23.13h0l-1.23-.12Z"/><path class="a" d="M36.17,67l.45,0,0,.08a.68.68,0,0,1-.22.12.82.82,0,0,1-.25-.06A.43.43,0,0,1,36.17,67Z"/><path class="a" d="M104.36,65.53l.16.34-.74-.13.6-.2Z"/><path class="a" d="M78.43,63.2c-.21,0-.43.11-.56-.14h0c.31-.33.42,0,.58.14Z"/><path class="a" d="M63.54,66.67l-.7,0a.49.49,0,0,1,0-.12l.7,0A.62.62,0,0,1,63.54,66.67Z"/><path class="a" d="M102.76,65.4l.6.17,0,.11-.63-.12Z"/><path class="a" d="M86.93,65.67l-.81.15s0,0,0-.08l.46-.22h0l.37.14Z"/><path class="a" d="M78.84,65.56l.6,0s0,0,0,.08l-.6,0A.22.22,0,0,0,78.84,65.56Z"/><path class="a" d="M89.13,65.8c-.22.09-.42.28-.77,0h.77Z"/><path class="a" d="M51.48,66.35h-.55v-.07h.55Z"/><path class="a" d="M77.87,63.06,77.31,63c.22-.3.31-.28.55.09Z"/><path class="a" d="M68.41,66.26h-.93v-.07h.93Z"/><path class="a" d="M74.06,63.93h-.59s0-.06,0-.08l.59-.06A.71.71,0,0,0,74.06,63.93Z"/><path class="a" d="M51.69,62.77l-.9-.09c.55-.14.55-.14.9.09Z"/><path class="a" d="M86.12,64.05c-.15.36-.42.25-.7.11l.71-.1Z"/><path class="a" d="M58.64,62.45l.16.19h-.66l.35-.18h.15Z"/><path class="a" d="M97.49,65.44a.85.85,0,0,1-.26,0,.66.66,0,0,1-.2-.11c.08,0,.15-.11.23-.12a.85.85,0,0,1,.26,0h0s0,.1,0,.15Z"/><path class="a" d="M80,62.25c-.08-.09-.16-.14-.15-.17s.08-.12.12-.18.13.07.13.11A.65.65,0,0,1,80,62.25Z"/><path class="a" d="M41.52,67.7h.63v0h-.63Z"/><path class="a" d="M66.52,65.76h-.83V65.7h.83A.06.06,0,0,0,66.52,65.76Z"/><path class="a" d="M69.21,64.7l.75,0v.11H69.2A.09.09,0,0,0,69.21,64.7Z"/><path class="a" d="M102.21,66.92l-.27-.23.59.09a.19.19,0,0,0,0,.08l-.33,0Z"/><path class="a" d="M79.4,66.22h.5v0l-.51,0A.28.28,0,0,1,79.4,66.22Z"/><path class="a" d="M65.47,62.75l-.6-.09c.11-.06.15-.1.18-.1l.44,0A.68.68,0,0,0,65.47,62.75Z"/><path class="a" d="M100.38,66.56l-.93-.06s0-.06,0-.09l.9.16Z"/><path class="a" d="M82.26,63.19l.61.29c0,.05-.05.09-.07.14l-.27-.08h0l-.27-.37Z"/><path class="a" d="M66.88,63.92l-.53-.14c.36-.09.36-.09.53.14Z"/><path class="a" d="M86.38,62.31c0,.07.09.13.19.28l-.71-.25.52,0Z"/><path class="a" d="M36.52,62.71c-.06,0-.12.06-.17,0s-.07-.08-.11-.12a.58.58,0,0,1,.17-.06,1.62,1.62,0,0,1,.19,0Z"/><path class="a" d="M91.72,64.58l-.84,0a.79.79,0,0,1,.84,0Z"/><path class="a" d="M52.85,66.2h.43s0,0,0,.07a1,1,0,0,1-.25.08.83.83,0,0,1-.22,0S52.84,66.24,52.85,66.2Z"/><path class="a" d="M72,65.32l.3,0v.08h-.31S72,65.36,72,65.32Z"/><path class="a" d="M32.3,62.44c.05.1.17.26.13.3s-.24.09-.27-.09,0-.11,0-.16Z"/><path class="a" d="M107.5,66.73l-.39-.07s0-.06,0-.09l.4.05A.45.45,0,0,0,107.5,66.73Z"/><path class="a" d="M65.64,64.7h-.4a.34.34,0,0,0,0-.1l.39,0A.68.68,0,0,1,65.64,64.7Z"/><path class="a" d="M96.29,64.79c-.23.19-.46.26-.7,0h0l.29-.13h0l.42.13Z"/><path class="a" d="M49.71,62.81l-.5-.12v-.12h.49v.14h0a.57.57,0,0,0,0,.13Z"/><path class="a" d="M70.61,64.72h.57v0h-.57Z"/><path class="a" d="M62.34,64.7l-.48-.09h.52Z"/><path class="a" d="M65.39,63.41l-.44,0v0l.42,0A.29.29,0,0,0,65.39,63.41Z"/><path class="a" d="M34.68,68h.44v0h-.44Z"/><path class="a" d="M99.15,66.67l.42,0v0l-.42,0Z"/><path class="a" d="M56.94,66.29h-.51c0-.06,0-.11,0-.11.16,0,.33,0,.49,0A.52.52,0,0,0,56.94,66.29Z"/><path class="a" d="M104.42,67h-.72s0-.06,0-.09l.71.09Z"/><path class="a" d="M75.23,63.9c0,.13-.07.23-.25.15s0-.06-.06-.09l.32-.05Z"/><path class="a" d="M72,67.34h.38s0,0,0,.06l-.38,0A.31.31,0,0,1,72,67.34Z"/><path class="a" d="M80.87,62.75l-.11,0,.14-.08.08.08Z"/><path class="a" d="M69.82,65.8l-.45,0v0h.47A.24.24,0,0,1,69.82,65.8Z"/><path class="a" d="M76,63.05l-.2-.16s.1-.08.14-.08a.37.37,0,0,1,.16.07A.45.45,0,0,1,76,63.05Z"/><path class="a" d="M79.37,63c-.09,0-.14.08-.19.07s-.09-.06-.13-.1.1-.08.15-.08S79.29,63,79.37,63Z"/><path class="a" d="M76.2,66.39h-.44v-.06h.44Z"/><path class="a" d="M5.05,63.3H4.63v-.12H5s0,.09,0,.14Z"/><path class="a" d="M75.88,67.5l.37.06v0h-.37Z"/><path class="a" d="M77.59,67.61h-.3v0h.3Z"/><path class="a" d="M89.28,65.8l.55-.12s0,.07,0,.11h-.57Z"/><path class="a" d="M61.68,66.6h-.3v0h.3Z"/><path class="a" d="M50,62.28H49.7a.06.06,0,0,0,0,0l.29,0Z"/><path class="a" d="M67.83,62.25h-.29v0l.28,0Z"/><path class="a" d="M84.18,65.6h.32v0h-.32Z"/><path class="a" d="M73.05,62.35h.3v0h-.3Z"/><path class="a" d="M61.35,62.72l.53-.22c-.16.36-.35.27-.52.21Z"/><path class="a" d="M46.18,67.61h-.31v0l.3,0A.19.19,0,0,0,46.18,67.61Z"/><path class="a" d="M93.23,66.57l.44,0a1,1,0,0,0,0,.17l-.41-.15A0,0,0,0,1,93.23,66.57Z"/><path class="a" d="M68.8,63.72h.34v.05H68.8Z"/><path class="a" d="M76.26,64.08s-.05-.07,0-.08.07,0,.11-.06,0,.07,0,.08A.6.6,0,0,1,76.26,64.08Z"/><path class="a" d="M57.89,67.09l.09.06s0,.07-.07.07-.06,0-.09-.06Z"/><path class="a" d="M98.63,66.38h-.25v0h.27Z"/><path class="a" d="M79.71,63.46l-.09,0h-.06l0-.08Z"/><path class="a" d="M90.3,65.91s0,.07-.09.08-.06,0-.09,0,0-.06.09-.07S90.27,65.9,90.3,65.91Z"/><path class="a" d="M89,66.41l-.12,0s.07-.07.12-.07.06,0,.1.06Z"/><path class="a" d="M86.6,64.2h.29v0h-.27S86.61,64.22,86.6,64.2Z"/><path class="a" d="M103.54,64l-.12,0s.08-.06.12-.06.06,0,.09.06Z"/><path class="a" d="M61.57,64.14l.2.17-.09,0c0-.08-.07-.15-.11-.22Z"/><path class="a" d="M114.66,67.93h.45s0,0,0,.07l-.43-.08Z"/><path class="a" d="M75.44,64.91h-.33s.07-.08.12-.09S75.3,64.85,75.44,64.91Z"/><path class="a" d="M72.68,65.44l.27-.06s0,.06,0,.08l-.27.05S72.69,65.46,72.68,65.44Z"/><path class="a" d="M100.37,66.57h.46v.07l-.45-.08Z"/><path class="a" d="M84,64.09s-.08,0-.11,0,0,0-.07-.07a.17.17,0,0,1,.1,0A.14.14,0,0,1,84,64.09Z"/><path class="a" d="M53.3,67.47h-.17a.23.23,0,0,1,0,0h.18Z"/><path class="a" d="M83.09,62.2l.35,0s0,.06,0,.09a3.43,3.43,0,0,1-.34-.06Z"/><path class="a" d="M85.11,64.58h.24s0,0,0,.06l-.24,0A.28.28,0,0,0,85.11,64.58Z"/><path class="a" d="M81.84,67.7l.17,0h-.18S81.84,67.71,81.84,67.7Z"/><path class="a" d="M92.6,63l.07.09,0,0a.33.33,0,0,1-.1-.06Z"/><path class="a" d="M62.87,63.78a.33.33,0,0,1,.1-.06s.06,0,.08.05-.06.06-.1.07S62.9,63.8,62.87,63.78Z"/><path class="a" d="M34.63,68.32h.23l-.11.05Z"/><path class="a" d="M28.41,62.94c.06,0,.11-.08.17-.08a.52.52,0,0,1,.16.06c-.06,0-.11.1-.17.11s-.1-.06-.15-.1Z"/><path class="a" d="M51.68,62.78l-.18.27L51.42,63l.26-.21Z"/><path class="a" d="M79.26,63.9l-.13-.16h.23l-.11.19Z"/><path class="a" d="M77.71,66.05l-.59,0c.31-.13.46-.11.58,0Z"/><path class="a" d="M83.08,63.18a1.49,1.49,0,0,0,0,.21l-.2-.19h.24Z"/><path class="a" d="M96.12,65.28l.37-.06s0,.07,0,.1l-.39,0Z"/><path class="a" d="M70.59,65.8s-.06.06-.08.06-.05,0-.08-.07l.08-.07A.6.6,0,0,0,70.59,65.8Z"/><path class="a" d="M58.59,64.66h-.21s0,0,0,0l.22,0S58.59,64.63,58.59,64.66Z"/><polygon class="a" points="77.98 65.23 78.04 65.23 78.03 65.24 77.98 65.23"/><path class="a" d="M66.09,65.35l0,0-.12,0s0,0,0,0Z"/><path class="a" d="M101.91,65.43l-.38,0s0-.07,0-.11l.32.14Z"/><path class="a" d="M61.59,67.47l-.06,0-.05,0s0,0,.06,0Z"/><path class="a" d="M82.71,65.84s.05,0,.06.08,0,0,0,0l-.1,0A.27.27,0,0,0,82.71,65.84Z"/><path class="a" d="M89.25,65.94h.29s0,0,0,.06l-.27-.07Z"/><path class="a" d="M95.67,67.58h.09a.1.1,0,0,1,0,0Z"/><path class="a" d="M77.7,66.06H78s0,0,0,.07l-.3-.08Z"/><path class="a" d="M79.38,62l.08.06a.21.21,0,0,1-.1,0s0,0-.08-.06Z"/><path class="a" d="M52.13,66.21l.06,0-.08.07,0,0A.16.16,0,0,1,52.13,66.21Z"/><path class="a" d="M74.53,62.36l.2,0s0,.08,0,.08A.54.54,0,0,1,74.53,62.36Z"/><path class="a" d="M88.15,62.71l-.26-.09.07-.08.18.18Z"/><path class="a" d="M70.88,66.28l-.09-.06,0,0a.53.53,0,0,1,.12,0Z"/><path class="a" d="M78.44,63.22c0-.08,0-.16.07-.24l.07,0-.15.2Z"/><path class="a" d="M36.14,67.91s0,0,0,0L36,67.86s0,0,.06,0Z"/><path class="a" d="M105.23,66.33l0,0h0Z"/><path class="a" d="M96.41,63.07l-.33,0c.14-.21.23-.18.32,0Z"/><path class="a" d="M59.78,63.4h-.24v0h.24Z"/><path class="a" d="M64.21,63.36s0,0,0,0l-.12,0s0,0,0,0Z"/><path class="a" d="M66.91,63.32l.08.06s-.07,0-.1,0,0,0-.08-.06Z"/><path class="a" d="M73.81,63.47s0,0,0,0h-.12s0,0,0-.07Z"/><path class="a" d="M67.19,63.73l.2,0,0,.1Z"/><path class="a" d="M68.19,63.74s-.06.06-.09.06-.07,0-.11,0,.06-.06.09-.06A.22.22,0,0,1,68.19,63.74Z"/><path class="a" d="M81.46,64l-.11-.05.08-.06s0,0,0,0A.29.29,0,0,1,81.46,64Z"/><path class="a" d="M40.54,66.87l-.08.06s-.05,0-.05,0,0-.07,0-.07Z"/><path class="a" d="M101.05,66.87h-.13s0,0,0,0Z"/><path class="a" d="M114.41,68.16l-.31,0s0,0,0-.08l.28.1Z"/><path class="a" d="M83.31,64a.53.53,0,0,1-.12,0s0-.05,0-.07,0,0,.06,0A.26.26,0,0,1,83.31,64Z"/><path class="a" d="M51.9,67.27l-.23-.13.07-.06a1.46,1.46,0,0,0,.16.19Z"/><path class="a" d="M87.94,64.3v0h-.11a.07.07,0,0,1,0,0Z"/><path class="a" d="M79,64.88A.46.46,0,0,0,79,65l-.11,0-.05,0Z"/><path class="a" d="M74,67.41a1.24,1.24,0,0,0-.2.1.14.14,0,0,1,0-.06l.24,0Z"/><path class="a" d="M20.32,68.75l-.11,0,.06,0,.12,0Z"/><polygon class="a" points="74.52 63.49 74.51 63.51 74.47 63.5 74.52 63.49"/><polygon class="a" points="97.72 67.83 97.77 67.84 97.72 67.86 97.72 67.83"/><path class="a" d="M37.15,67s0,0,0,0h-.06s0,0,0,0S37.13,67,37.15,67Z"/><polygon class="a" points="98.07 63.31 98.04 63.35 98.02 63.31 98.07 63.31"/><polygon class="a" points="39.99 67.45 40.03 67.46 40 67.48 39.99 67.45"/><path class="a" d="M37.08,66.68l-.24.06a.07.07,0,0,0,0,0Z"/><path class="a" d="M65.27,66.57h.06l0,.06s0,0,0,0S65.26,66.58,65.27,66.57Z"/><path class="a" d="M52.05,67.42l.18,0-.17,0Z"/><path class="a" d="M36.34,66.7v0h-.11v0Z"/><path class="a" d="M73.33,65.47l0,0h0Z"/><path class="a" d="M80.33,65.38l0,0s0-.05,0-.07h.06S80.32,65.37,80.33,65.38Z"/><path class="a" d="M75.52,65.46v.05h-.11v0Z"/><path class="a" d="M64.65,66.58s0,0,0,0h0l0-.06Z"/><path class="a" d="M103.14,66.87l-.1,0s0,0,0,0l.1,0S103.14,66.86,103.14,66.87Z"/><path class="a" d="M101.9,65.44h.22l0,.08-.19-.08Z"/><path class="a" d="M103,63.85a.06.06,0,0,1,0,0l0,0Z"/><path class="a" d="M90.79,64.17a.29.29,0,0,1-.42,0h.42Z"/><path class="a" d="M79.82,64.33l0,0,.08,0a.17.17,0,0,1,0,0Z"/><path class="a" d="M41.33,66.67l0,0c0-.05,0,0,0,0Z"/><path class="a" d="M52.15,63l0,0s0,0,0-.06h.05A0,0,0,0,1,52.15,63Z"/><polygon class="a" points="104.91 64.11 104.86 64.13 104.87 64.09 104.91 64.11"/><path class="a" d="M75.24,63.91l.22-.07a.09.09,0,0,0,0,0h-.24Z"/><path class="a" d="M101.82,63.76l0,0,0,0s0,0,0,.06Z"/><path class="a" d="M68.23,64.1a.09.09,0,0,1,0,.05s0,0,0-.05Z"/><path class="a" d="M48,63l-.4,0h0L48,63Z"/><path class="a" d="M91.7,64.58l.22,0v0l-.21,0S91.7,64.58,91.7,64.58Z"/><path class="a" d="M68.33,63.39h0v0h.06A.06.06,0,0,0,68.33,63.39Z"/><path class="a" d="M65.93,63.8l0,0s0,0,0,0,0,0,0,0Z"/><polygon class="a" points="63.22 63.35 63.28 63.36 63.23 63.38 63.22 63.35"/><polygon class="a" points="26.56 63.01 26.52 63 26.56 62.99 26.56 63.01"/><path class="a" d="M63.43,63.78l0,0,0,0s0,0,0,0Z"/><path class="a" d="M78.87,66.5a.07.07,0,0,1,0,0h.06a.07.07,0,0,1,0,0S78.89,66.5,78.87,66.5Z"/><path class="a" d="M56.45,62.92l0,0,0,0-.08,0Z"/><polygon class="a" points="63.05 62.64 63.08 62.67 63.04 62.69 63.05 62.64"/><path class="a" d="M59.75,62.68l.16,0a.08.08,0,0,0,0,0,.59.59,0,0,0-.14-.06Z"/><path class="a" d="M59.76,62.67h-.23l0-.07.19.08Z"/><polygon class="a" points="73.69 66.3 73.74 66.3 73.73 66.33 73.69 66.3"/><path class="a" d="M69.06,66.21v.05h-.12v-.05Z"/><path class="a" d="M65.74,66.2s0,0,0,0h-.06s0,0,0,0Z"/><path class="a" d="M64.93,66.24l-.11,0,0,0,.11,0S64.92,66.22,64.93,66.24Z"/><path class="a" d="M96.76,67.75h-.05l.06,0,0,0Z"/><path class="a" d="M85.45,62.3h0Z"/><path class="a" d="M53.93,62.26l0,0a.21.21,0,0,1,0-.06h.06Z"/><path class="a" d="M48.59,62.27h-.08s0,0,0,0Z"/><polygon class="a" points="39.78 62.24 39.77 62.27 39.73 62.25 39.78 62.24"/><path class="a" d="M36.63,62.31l0,0h0Z"/><polygon class="a" points="82.03 62.12 82.09 62.1 82.08 62.14 82.03 62.12"/><path class="a" d="M79,64.48l0,0a.21.21,0,0,1,0,.06H79Z"/><path class="a" d="M78.4,61.88l-.05,0s0,0,0,0l0,0Z"/><path class="a" d="M61.54,66.22a.05.05,0,0,1,0,0h0s0,0,0,0A.08.08,0,0,1,61.54,66.22Z"/><path class="a" d="M78.9,67.63l0,0H79Z"/><path class="a" d="M75.65,64.46v.05l-.07-.05Z"/><path class="a" d="M103.93,68.48l-.12,0s0,0,0,0l.12,0Z"/><path class="a" d="M46.77,67.57v0l-.06,0Z"/><path class="a" d="M114.4,68.17l.4.13h0l-.4-.13Z"/><path class="a" d="M87.59,65.85l0,0a.09.09,0,0,1-.05,0l.05,0A.09.09,0,0,1,87.59,65.85Z"/><path class="a" d="M95.71,67.31l.21,0s0,0,0,.08l-.18-.07Z"/><path class="a" d="M85.56,65.73l0,0,0,0Z"/><path class="a" d="M67.07,65.76l0,0,.06,0s0,0,0,0Z"/><path class="a" d="M102.94,67.11h0v0h0Z"/><polygon class="a" points="117.35 68.27 117.31 68.27 117.33 68.24 117.35 68.27"/><path class="a" d="M85,65.63l0,0s0,0,0,0l-.08,0Z"/><path class="a" d="M64.13,67.21l0,0,0-.06S64.12,67.19,64.13,67.21Z"/><path class="a" d="M101.56,66.7v0l-.06,0A.06.06,0,0,1,101.56,66.7Z"/><path class="a" d="M62.91,67.25l0,0,0,0s0,0,.05,0Z"/><polygon class="a" points="83.9 63.6 83.9 63.64 83.86 63.62 83.9 63.6"/><path class="a" d="M78.7,63.66Z"/><polygon class="a" points="42.79 63.6 42.83 63.62 42.79 63.64 42.79 63.6"/><polygon class="a" points="75.01 63.51 74.97 63.49 75.01 63.48 75.01 63.51"/><polygon class="a" points="84.76 66.58 84.76 66.61 84.72 66.6 84.76 66.58"/><polygon class="a" points="62.36 66.62 62.31 66.59 62.36 66.58 62.36 66.62"/><path class="a" d="M99.29,63.44l0,0s0,0,0,0Z"/><path class="a" d="M69.55,63.35s0,0,0,0h0s0,0,0,0Z"/><polygon class="a" points="67.84 63.39 67.84 63.35 67.88 63.37 67.84 63.39"/><polygon class="a" points="112.42 67.92 112.41 67.89 112.45 67.89 112.42 67.92"/><polygon class="a" points="77.6 63.24 77.65 63.23 77.64 63.26 77.6 63.24"/><polygon class="a" points="96.98 66.49 96.98 66.46 97.02 66.47 96.98 66.49"/><path class="a" d="M96.4,63.08h0Z"/><polygon class="a" points="93.69 63.12 93.64 63.14 93.65 63.1 93.69 63.12"/><polygon class="a" points="38.39 67.84 38.43 67.83 38.43 67.86 38.39 67.84"/><path class="a" d="M35.73,66.52h0S35.73,66.52,35.73,66.52Z"/><path class="a" d="M48,63.05Z"/><path class="a" d="M75.34,62.88s0,0,0,0h0a0,0,0,0,0,0,0A.06.06,0,0,1,75.34,62.88Z"/><path class="a" d="M74.9,66.35s0,0-.05,0,0,0,0-.05h.06Z"/><path class="a" d="M70.43,62.7l.09,0h0l0,0Z"/><path class="a" d="M117.41,67.68h0Z"/><polygon class="a" points="31.84 62.73 31.88 62.75 31.83 62.76 31.84 62.73"/><path class="a" d="M29.92,62.8l-.09,0h0l0,.05Z"/><path class="a" d="M62.51,62.63l0,0s0,0-.05,0Z"/><path class="a" d="M49.69,62.56l.11,0-.11.09h0a.66.66,0,0,0,0-.14Z"/><polygon class="a" points="38.88 62.65 38.83 62.62 38.89 62.6 38.88 62.65"/><polygon class="a" points="86.92 62.5 86.96 62.48 86.95 62.52 86.92 62.5"/><polygon class="a" points="60.17 62.4 60.13 62.38 60.17 62.36 60.17 62.4"/><path class="a" d="M72.25,62.26l0,0s0,0,0,0,0,0,0,0A.09.09,0,0,1,72.25,62.26Z"/><path class="a" d="M58.5,62.45h0Z"/><path class="a" d="M116.32,66.15l.11-.05-.12,0Z"/><polygon class="a" points="105.61 68.5 105.6 68.56 105.62 68.51 105.61 68.5"/><path class="a" d="M85.27,66.12s0,0,0,0h0s0,0,0,0Z"/><path class="a" d="M56.19,67.44l.05,0-.06.05s0,0,0,0S56.17,67.45,56.19,67.44Z"/><path class="a" d="M80.48,62.18l0-.06,0,.05Z"/><path class="a" d="M86.57,65.52h0S86.57,65.52,86.57,65.52Z"/><path class="a" d="M97.48,65.45h0Z"/><path class="a" d="M114.8,68.31h0Z"/><path class="a" d="M105.66,64.28l-.3-.11h0l.3.1Z"/><polygon class="a" points="52.68 67.16 52.66 67.19 52.65 67.15 52.68 67.16"/><polygon class="a" points="72.38 64.73 72.38 64.76 72.34 64.74 72.38 64.73"/><polygon class="a" points="47.35 67.58 47.35 67.61 47.31 67.6 47.35 67.58"/><polygon class="a" points="45.3 67.59 45.34 67.58 45.33 67.61 45.3 67.59"/><path class="a" d="M102.2,66.91l-.07.07.09-.06Z"/><polygon class="a" points="74.29 64.39 74.29 64.35 74.33 64.37 74.29 64.39"/><polygon class="a" points="106.07 68.73 106.03 68.72 106.07 68.7 106.07 68.73"/><polygon class="a" points="80.53 65.68 80.55 65.65 80.57 65.68 80.53 65.68"/><path class="a" d="M69.89,67.55a.05.05,0,0,1,0,0s0,0,0,0Z"/><path class="a" d="M73.19,61.69h0Z"/><path class="a" d="M73.18,61.69h0Z"/><path class="a" d="M83.09,62.19Z"/><polygon class="a" points="37.05 62.32 37.04 62.3 37.04 62.31 37.05 62.32"/><polygon class="a" points="85.46 62.3 85.43 62.3 85.45 62.3 85.46 62.3"/><path class="a" d="M86.38,62.31h0Z"/><polygon class="a" points="37.04 62.31 37.07 62.33 37.05 62.32 37.04 62.31"/><path class="a" d="M88.13,62.71h0Z"/><path class="a" d="M28.42,62.93h0Z"/><polygon class="a" points="29.9 62.81 29.93 62.82 29.92 62.8 29.9 62.81"/><polygon class="a" points="34.97 62.82 35 62.82 34.99 62.82 34.97 62.82"/><path class="a" d="M35.84,63.07Z"/><path class="a" d="M5,63.18H5Z"/><polygon class="a" points="82.28 63.18 82.25 63.17 82.26 63.19 82.28 63.18"/><polygon class="a" points="83.1 63.19 83.11 63.16 83.08 63.18 83.1 63.19"/><path class="a" d="M4,63.3Z"/><path class="a" d="M5,63.31H5Z"/><path class="a" d="M56.16,63.44h0Z"/><polygon class="a" points="99.28 63.43 99.32 63.44 99.29 63.44 99.28 63.43"/><path class="a" d="M6.69,63.69h0Z"/><polygon class="a" points="82.53 63.54 82.53 63.57 82.55 63.55 82.53 63.54"/><polygon class="a" points="78.7 63.67 78.71 63.69 78.7 63.66 78.7 63.67"/><path class="a" d="M66.87,63.93Z"/><path class="a" d="M79.25,63.91Z"/><path class="a" d="M61.58,64.14h0Z"/><path class="a" d="M105.37,64.17h0Z"/><path class="a" d="M80.47,62.17Z"/><polygon class="a" points="90.54 64.79 90.51 64.79 90.53 64.79 90.54 64.79"/><path class="a" d="M90.64,64.8h0Z"/><polygon class="a" points="111.83 64.79 111.8 64.78 111.82 64.78 111.83 64.79"/><path class="a" d="M92.3,64.93h0Z"/><path class="a" d="M53,64.93h0Z"/><polygon class="a" points="59.29 64.93 59.33 64.94 59.31 64.93 59.29 64.93"/><path class="a" d="M98.36,65h0Z"/><path class="a" d="M52.56,65.28h0Z"/><path class="a" d="M97.53,65.31h0Z"/><path class="a" d="M86.94,65.68Z"/><path class="a" d="M89.27,65.78s0,.11,0,.16h0l-.14-.14h.14Z"/><polygon class="a" points="36.24 66.41 36.23 66.43 36.25 66.41 36.24 66.41"/><path class="a" d="M116.9,66.55h0Z"/><path class="a" d="M95.18,66.67h0Z"/><path class="a" d="M108.09,66.52h0Z"/><path class="a" d="M51.89,67.28l.16.14h0l-.17-.13Z"/><path class="a" d="M66.48,67.42h0Z"/><path class="a" d="M74,67.41Z"/><polygon class="a" points="31.43 67.54 31.44 67.52 31.42 67.53 31.43 67.54"/><path class="a" d="M50.64,67.42h0Z"/><polygon class="a" points="66.47 67.41 66.45 67.42 66.48 67.42 66.47 67.41"/><polygon class="a" points="69.88 67.54 69.91 67.55 69.89 67.55 69.88 67.54"/><path class="a" d="M118.69,68.9Z"/><polygon class="a" points="118.68 68.9 118.67 68.91 118.69 68.9 118.68 68.9"/><path class="a" d="M46.28,65.3h-.15C46.17,65.17,46.22,65.19,46.28,65.3Z"/></svg>