<svg width="41" height="40" viewBox="0 0 41 40" fill="none" xmlns="http://www.w3.org/2000/svg">
<path fill-rule="evenodd" clip-rule="evenodd" d="M0.709473 20C0.709473 8.9543 9.67886 0 20.7432 0C31.8075 0 40.7768 8.9543 40.7768 20C40.7768 31.0457 31.8075 40 20.7432 40C9.67886 40 0.709473 31.0457 0.709473 20ZM20.1432 16.2563L20.1852 16.9483L19.4845 16.8636C16.9341 16.5387 14.7061 15.4371 12.8143 13.5869L11.8894 12.6689L11.6512 13.3468C11.1467 14.858 11.469 16.454 12.52 17.5274C13.0805 18.1205 12.9544 18.2053 11.9875 17.8522C11.6512 17.7392 11.3569 17.6545 11.3289 17.6968C11.2308 17.7957 11.5671 19.0809 11.8334 19.5894C12.1977 20.2955 12.9404 20.9876 13.7532 21.3972L14.4398 21.722L13.627 21.7361C12.8423 21.7361 12.8143 21.7502 12.8984 22.0468C13.1786 22.9649 14.2857 23.9394 15.5188 24.3631L16.3876 24.6597L15.6309 25.1116C14.5099 25.7613 13.1926 26.1285 11.8754 26.1567C11.2448 26.1709 10.7263 26.2274 10.7263 26.2697C10.7263 26.411 12.4359 27.2019 13.4309 27.5126C16.4157 28.4306 19.961 28.0351 22.6235 26.4674C24.5153 25.3517 26.407 23.1343 27.2899 20.9876C27.7663 19.8436 28.2428 17.7533 28.2428 16.7506C28.2428 16.1009 28.2848 16.0162 29.0695 15.2394C29.532 14.7874 29.9664 14.2931 30.0505 14.1519C30.1906 13.8835 30.1766 13.8835 29.4619 14.1236C28.2708 14.5473 28.1026 14.4908 28.6912 13.8553C29.1256 13.4033 29.6441 12.5842 29.6441 12.3441C29.6441 12.3017 29.4339 12.3723 29.1957 12.4994C28.9434 12.6407 28.3829 12.8525 27.9625 12.9796L27.2058 13.2197L26.5191 12.7537C26.1408 12.4994 25.6083 12.217 25.328 12.1322C24.6133 11.9345 23.5203 11.9627 22.8757 12.1887C21.1241 12.8243 20.017 14.4626 20.1432 16.2563Z" fill="white"/>
</svg>
