<svg width="41" height="40" viewBox="0 0 41 40" fill="none" xmlns="http://www.w3.org/2000/svg">
<path fill-rule="evenodd" clip-rule="evenodd" d="M0.854736 20C0.854736 8.9543 9.82412 0 20.8884 0C31.9527 0 40.9221 8.9543 40.9221 20C40.9221 31.0457 31.9527 40 20.8884 40C9.82412 40 0.854736 31.0457 0.854736 20ZM20.8894 9.33333C17.9876 9.33333 17.6235 9.346 16.4837 9.39778C15.3463 9.44978 14.5698 9.62956 13.8905 9.89334C13.1877 10.1658 12.5916 10.5302 11.9977 11.1234C11.4034 11.7162 11.0383 12.3114 10.7645 13.0127C10.4996 13.6912 10.3193 14.4665 10.2681 15.6016C10.2171 16.7394 10.2038 17.1032 10.2038 20.0001C10.2038 22.897 10.2167 23.2595 10.2683 24.3973C10.3207 25.5328 10.5007 26.308 10.7647 26.9862C11.0379 27.6877 11.4029 28.2829 11.997 28.8758C12.5907 29.4691 13.1868 29.8344 13.8891 30.1069C14.569 30.3707 15.3456 30.5504 16.4829 30.6024C17.6226 30.6542 17.9865 30.6669 20.8881 30.6669C23.7901 30.6669 24.1532 30.6542 25.2929 30.6024C26.4304 30.5504 27.2077 30.3707 27.8875 30.1069C28.59 29.8344 29.1852 29.4691 29.7789 28.8758C30.3732 28.2829 30.7383 27.6877 31.0121 26.9864C31.2748 26.308 31.4551 25.5326 31.5085 24.3975C31.5597 23.2597 31.5731 22.897 31.5731 20.0001C31.5731 17.1032 31.5597 16.7396 31.5085 15.6018C31.4551 14.4663 31.2748 13.6912 31.0121 13.0129C30.7383 12.3114 30.3732 11.7162 29.7789 11.1234C29.1846 10.53 28.5902 10.1656 27.8868 9.89334C27.2057 9.62956 26.4288 9.44978 25.2913 9.39778C24.1516 9.346 23.7888 9.33333 20.8861 9.33333H20.8894Z" fill="white"/>
<path fill-rule="evenodd" clip-rule="evenodd" d="M19.9309 11.2556C20.2154 11.2551 20.5328 11.2556 20.8894 11.2556C23.7423 11.2556 24.0804 11.2658 25.2069 11.3169C26.2487 11.3645 26.8141 11.5382 27.1908 11.6842C27.6894 11.8776 28.0449 12.1087 28.4186 12.482C28.7926 12.8554 29.0241 13.2109 29.2182 13.7087C29.3644 14.0843 29.5387 14.6487 29.5861 15.6887C29.6373 16.8132 29.6485 17.151 29.6485 19.9977C29.6485 22.8444 29.6373 23.1821 29.5861 24.3066C29.5385 25.3466 29.3644 25.9111 29.2182 26.2866C29.0245 26.7844 28.7926 27.1388 28.4186 27.512C28.0446 27.8853 27.6896 28.1164 27.1908 28.3098C26.8146 28.4564 26.2487 28.6298 25.2069 28.6773C24.0806 28.7284 23.7423 28.7395 20.8894 28.7395C18.0364 28.7395 17.6982 28.7284 16.5719 28.6773C15.5301 28.6293 14.9647 28.4555 14.5879 28.3095C14.0893 28.1162 13.7331 27.8851 13.3591 27.5117C12.9852 27.1384 12.7537 26.7837 12.5596 26.2857C12.4133 25.9102 12.239 25.3457 12.1916 24.3057C12.1404 23.1813 12.1302 22.8435 12.1302 19.995C12.1302 17.1465 12.1404 16.8105 12.1916 15.6861C12.2392 14.6461 12.4133 14.0816 12.5596 13.7056C12.7532 13.2078 12.9852 12.8523 13.3591 12.4789C13.7331 12.1056 14.0893 11.8745 14.5879 11.6807C14.9645 11.534 15.5301 11.3607 16.5719 11.3129C17.5576 11.2685 17.9395 11.2551 19.9309 11.2529V11.2556ZM26.5929 13.0267C25.885 13.0267 25.3107 13.5994 25.3107 14.3063C25.3107 15.0129 25.885 15.5863 26.5929 15.5863C27.3007 15.5863 27.875 15.0129 27.875 14.3063C27.875 13.5996 27.3007 13.0267 26.5929 13.0267ZM20.8894 14.5223C17.8592 14.5223 15.4024 16.975 15.4024 20.0001C15.4024 23.0253 17.8592 25.4768 20.8894 25.4768C23.9197 25.4768 26.3756 23.0253 26.3756 20.0001C26.3756 16.975 23.9197 14.5223 20.8894 14.5223Z" fill="white"/>
<path fill-rule="evenodd" clip-rule="evenodd" d="M20.8894 16.4445C22.8563 16.4445 24.451 18.0363 24.451 20.0001C24.451 21.9637 22.8563 23.5557 20.8894 23.5557C18.9223 23.5557 17.3278 21.9637 17.3278 20.0001C17.3278 18.0363 18.9223 16.4445 20.8894 16.4445Z" fill="white"/>
</svg>
