<svg width="24" height="24" viewBox="0 0 24 24" fill="none" xmlns="http://www.w3.org/2000/svg">
<path fill-rule="evenodd" clip-rule="evenodd" d="M1 5.6019C1 5.6019 10.0558 10.7372 11.8135 10.7372C13.6558 10.7372 22.6135 5.7 22.6135 5.7L22.6279 4.8C22.6279 3.8064 21.8215 3 20.8252 3H2.8018C1.8064 3 1 3.8064 1 4.8V5.6019ZM22.6135 8.3999C22.6135 8.3999 13.7404 13.2121 11.8135 13.2121C10.0558 13.2121 1.0135 8.3999 1.0144 8.3999L1 19.1999C1 20.1935 1.8073 20.9999 2.8018 20.9999H20.8252C21.8215 20.9999 22.6279 20.1935 22.6279 19.1999L22.6135 8.3999Z" fill="#2314A7"/>
</svg>
