<?xml version="1.0" encoding="utf-8"?>
<!-- Generator: Adobe Illustrator 25.1.0, SVG Export Plug-In . SVG Version: 6.00 Build 0)  -->
<svg width="41" height="40" version="1.1" id="Layer_1" xmlns="http://www.w3.org/2000/svg" xmlns:xlink="http://www.w3.org/1999/xlink" x="0px" y="0px"
	 viewBox="0 0 41 40" style="enable-background:new 0 0 41 40;" xml:space="preserve">
<style type="text/css">
	.st0{fill-rule:evenodd;clip-rule:evenodd;fill:#FFFFFF;}
</style>
<path class="st0" d="M20,0C9,0,0,8.9,0,20s9,20,20,20s20-9,20-20S31.1,0,20,0z M29,29H11c-1,0-1.8-0.8-1.8-1.8V16.4
	c0,0,9,4.8,10.8,4.8c1.9,0,10.8-4.8,10.8-4.8v10.8C30.8,28.2,30,29,29,29z M30.8,13.7c0,0-9,5-10.8,5S9.2,13.6,9.2,13.6v-0.8
	c0-1,0.8-1.8,1.8-1.8h18c1,0,1.8,0.8,1.8,1.8V13.7z"/>
</svg>
