<svg width="34" height="34" viewBox="0 0 34 34" fill="none" xmlns="http://www.w3.org/2000/svg">
<path fill-rule="evenodd" clip-rule="evenodd" d="M13.6673 27.0002C6.30352 27.0002 0.333984 21.0306 0.333984 13.6668C0.333984 6.30303 6.30352 0.333496 13.6673 0.333496C21.0311 0.333496 27.0007 6.30303 27.0007 13.6668C27.0007 16.748 25.9555 19.5851 24.2004 21.8429L33.1792 30.8217L30.8222 33.1787L21.8434 24.1999C19.5856 25.955 16.7485 27.0002 13.6673 27.0002ZM23.6673 13.6668C23.6673 19.1897 19.1902 23.6668 13.6673 23.6668C8.14447 23.6668 3.66732 19.1897 3.66732 13.6668C3.66732 8.14398 8.14447 3.66683 13.6673 3.66683C19.1902 3.66683 23.6673 8.14398 23.6673 13.6668Z" fill="#2314A7"/>
</svg>
