<svg width="108" height="24" viewBox="0 0 108 24" fill="none" xmlns="http://www.w3.org/2000/svg">
<path fill-rule="evenodd" clip-rule="evenodd" d="M33.4051 14.8821C33.4689 14.7365 33.5875 14.4958 33.6314 14.3753L36.4475 7.27236L39.2101 14.445C39.2542 14.5685 39.3515 14.7586 39.4138 14.928L39.0719 14.9995C38.2862 15.2179 37.4154 15.3607 36.5113 15.3607C35.6208 15.3607 34.7925 15.2385 33.9112 14.9995C33.747 14.9518 33.5251 14.8821 33.4051 14.8821ZM4.8386 4.05508C7.96608 4.05508 10.1695 4.72685 11.5569 6.00031C13.2134 7.51165 14.0415 9.50584 14.0415 11.9976C14.0415 14.3753 13.2347 16.3427 11.6541 17.8824C10.2668 19.2478 8.00862 19.9703 4.8386 19.9703H3.81584V4.05508H4.8386ZM101.529 6.09699C103.098 7.68106 103.85 9.67064 103.85 11.9976C103.85 14.304 103.075 16.2698 101.529 17.9046C99.9901 19.5109 98.1209 20.3299 95.9372 20.3299C91.5407 20.3299 88.0351 16.5598 88.0351 11.9976C88.0351 9.696 88.8206 7.70323 90.3662 6.07162C91.8858 4.46396 93.7794 3.67174 95.9372 3.67174C98.0983 3.67174 99.9704 4.48755 101.529 6.09699ZM64.4456 7.48948L67.231 4.99293C64.8329 1.65538 61.6264 0 57.8547 0C51.4357 0 46.2523 5.35409 46.2523 12.0467C46.2523 18.5984 51.413 24 57.6937 24C59.2862 24 60.8028 23.6404 62.2723 22.9421C63.7053 22.2703 64.9515 21.3358 65.9605 20.1127C66.93 18.9833 67.5531 17.6893 67.9178 16.2698C68.2189 15.096 68.404 13.6546 68.3053 11.9279L68.2643 11.2325H58.2195V14.9043H64.3923C64.2328 16.3427 63.523 17.5942 62.2723 18.6255C60.9199 19.7753 59.3699 20.3299 57.6481 20.3299C55.6512 20.3299 53.855 19.4665 52.188 17.759C50.6942 16.1749 49.9419 14.2802 49.9419 12.0721C49.9419 9.74195 50.7168 7.73019 52.3293 6.04785C53.855 4.44178 55.6923 3.67174 57.8121 3.67174C60.5324 3.67174 62.672 4.96756 64.4456 7.48948ZM40.8468 18.554L42.8878 23.6404H46.9422L37.4367 0.312025H35.5888L25.8341 23.6404H29.8568L31.9964 18.4558C32.051 18.3133 32.0723 18.215 32.0951 18.1201C32.1893 18.1675 32.317 18.215 32.4812 18.2863C33.6847 18.768 35.1147 19.031 36.5113 19.031C37.8987 19.031 39.2542 18.7458 40.0611 18.4558C40.4699 18.3133 40.6083 18.239 40.7282 18.1675C40.7495 18.2642 40.824 18.4813 40.8468 18.554ZM4.71862 23.6404C8.81542 23.6404 11.9672 22.679 14.0827 20.6894C16.5034 18.4336 17.7284 15.5507 17.7284 12.0246C17.7284 8.35424 16.4806 5.40003 13.9976 3.19191C11.9004 1.32278 8.79279 0.383334 4.76253 0.383334H0V23.6404H4.71862ZM20.719 23.6404H24.3829V0.383334H20.719V23.6404ZM74.3583 12.7912H82.1646V9.14628H74.3583V4.05508H82.8636V0.383334H70.7017V23.6404H82.8864V19.9703H74.3583V12.7912ZM87.7676 3.5293C85.4881 5.85769 84.3605 8.71398 84.3605 12.0246C84.3605 18.7188 89.5425 24 95.9372 24C102.356 24 107.52 18.7458 107.52 12.0246C107.52 8.73616 106.365 5.92758 104.131 3.55148C101.874 1.17537 99.1436 0 95.9372 0C92.7566 0 90.0258 1.17537 87.7676 3.5293Z" fill="white"/>
</svg>
