<svg width="105" height="32" viewBox="0 0 105 32" fill="none" xmlns="http://www.w3.org/2000/svg">
<path d="M55.0298 22.7229L41.3312 6.93188H40.8809V27.5336H43.008V11.9368L56.5957 27.5336H57.0599V6.93188H55.0298V22.7229Z" fill="#2314A7"/>
<path d="M77.022 0C76.1975 0 75.5254 0.672399 75.5254 1.4973C75.5254 2.3222 76.1975 2.9946 77.022 2.9946C77.8535 2.9946 78.5187 2.3222 78.5187 1.4973C78.5187 0.672399 77.8466 0 77.022 0Z" fill="#2314A7"/>
<path d="M101.377 30.2232C99.8874 30.2232 98.46 29.8004 96.3536 28.7675C95.3836 28.2823 94.5382 28.0258 93.8592 27.8941V27.8317C98.7788 27.3465 102.701 23.0972 102.701 17.5932C102.701 11.2089 97.58 6.93188 91.8844 6.93188C86.1819 6.93188 81.0684 11.2089 81.0684 17.5932C81.0684 23.6171 85.5375 27.7693 90.852 28.2546C91.8221 28.6774 93.2494 29.3567 94.8708 30.1955C97.2336 31.4571 98.7857 31.977 100.989 31.977C101.606 31.977 102.153 31.8453 102.513 31.7483L103.969 29.7103C103.158 30.0569 102.347 30.2232 101.377 30.2232ZM83.2718 17.6487C83.2718 12.3319 87.3529 8.8659 91.8844 8.8659C96.3883 8.8659 100.497 12.3319 100.497 17.6487C100.497 22.9655 96.3813 26.4315 91.8844 26.4315C87.3529 26.4315 83.2718 22.9655 83.2718 17.6487Z" fill="#2314A7"/>
<path d="M73.3779 6.93188H70.6133L62.3817 14.661V6.93188H60.2822V27.5336H62.3817V17.9398L71.4101 27.5336H74.1471L63.4903 16.1722L73.3779 6.93188Z" fill="#2314A7"/>
<path d="M37.3958 6.93188H35.3379V27.5267H37.3958V6.93188Z" fill="#2314A7"/>
<path d="M10.9755 7.6736C9.58274 7.18143 7.35162 6.93188 4.27516 6.93188H0V27.5267H6.54786C9.11157 27.5267 11.1071 27.1524 12.5345 26.4037C13.9549 25.6551 15.112 24.4974 16.0059 22.9308C16.8997 21.3642 17.3432 19.548 17.3432 17.4823C17.3432 15.0908 16.7819 13.032 15.6525 11.3059C14.53 9.58682 12.971 8.37373 10.9755 7.6736ZM13.9272 22.3347C13.0403 23.6448 11.8208 24.5529 10.2756 25.0589C9.17393 25.4125 7.19918 25.5927 4.35831 25.5927H1.97475V8.95601H3.42983C6.38849 8.95601 8.50875 9.15011 9.79754 9.54523C11.5159 10.0651 12.8532 11.0356 13.8163 12.4428C14.7795 13.85 15.2575 15.5483 15.2575 17.5378C15.2575 19.4233 14.8141 21.0245 13.9272 22.3347Z" fill="#2314A7"/>
<path d="M78.3875 6.93188H76.2188V27.603H78.3875V6.93188Z" fill="#2314A7"/>
<path d="M29.919 17.3021C30.896 16.8654 31.6512 16.2276 32.1778 15.375C32.7044 14.5224 32.9677 13.538 32.9677 12.4151C32.9677 11.0703 32.5866 9.93342 31.8175 9.0184C31.0553 8.09645 30.0576 7.5003 28.8381 7.21609C28.0274 7.02893 26.4753 6.93188 24.1888 6.93188H20.0938V27.5267H22.1516V17.9606H23.3157L30.7228 27.5267H33.2657L25.8586 17.9606C27.5909 17.9606 28.942 17.7388 29.919 17.3021ZM22.1516 15.9504V8.94908H25.7824C27.1959 8.94908 28.2006 9.07386 28.8104 9.30954C29.4201 9.55216 29.9121 9.95422 30.2793 10.5226C30.6535 11.0911 30.8405 11.7149 30.8405 12.4081C30.8405 13.1152 30.6535 13.7599 30.2862 14.3352C29.919 14.9106 29.4063 15.3265 28.7411 15.5899C28.0828 15.8533 27.0643 15.985 25.6923 15.985L22.1516 15.9504Z" fill="#2314A7"/>
</svg>
