<svg width="105" height="32" viewBox="0 0 105 32" fill="none" xmlns="http://www.w3.org/2000/svg">
<path d="M55.0298 22.7231L41.3312 6.93213H40.8809V27.5339H43.008V11.937L56.5957 27.5339H57.0599V6.93213H55.0298V22.7231Z" fill="white"/>
<path d="M77.022 0C76.1975 0 75.5254 0.672399 75.5254 1.4973C75.5254 2.3222 76.1975 2.9946 77.022 2.9946C77.8535 2.9946 78.5187 2.3222 78.5187 1.4973C78.5187 0.672399 77.8466 0 77.022 0Z" fill="white"/>
<path d="M101.378 30.2235C99.8879 30.2235 98.4605 29.8006 96.3541 28.7678C95.384 28.2825 94.5387 28.0261 93.8597 27.8943V27.832C98.7792 27.3467 102.701 23.0974 102.701 17.5935C102.701 11.2091 97.5805 6.93213 91.8849 6.93213C86.1824 6.93213 81.0688 11.2091 81.0688 17.5935C81.0688 23.6173 85.538 27.7696 90.8525 28.2548C91.8226 28.6777 93.2499 29.357 94.8713 30.1958C97.2341 31.4574 98.7862 31.9773 100.99 31.9773C101.606 31.9773 102.154 31.8456 102.514 31.7485L103.969 29.7105C103.158 30.0571 102.348 30.2235 101.378 30.2235ZM83.2723 17.6489C83.2723 12.3321 87.3534 8.86614 91.8849 8.86614C96.3887 8.86614 100.498 12.3321 100.498 17.6489C100.498 22.9657 96.3818 26.4317 91.8849 26.4317C87.3534 26.4317 83.2723 22.9657 83.2723 17.6489Z" fill="white"/>
<path d="M73.3775 6.93213H70.6128L62.3812 14.6613V6.93213H60.2817V27.5339H62.3812V17.9401L71.4096 27.5339H74.1466L63.4898 16.1724L73.3775 6.93213Z" fill="white"/>
<path d="M37.3958 6.93213H35.3379V27.527H37.3958V6.93213Z" fill="white"/>
<path d="M10.9755 7.67385C9.58274 7.18168 7.35162 6.93213 4.27516 6.93213H0V27.527H6.54786C9.11157 27.527 11.1071 27.1526 12.5345 26.404C13.9549 25.6553 15.112 24.4977 16.0059 22.9311C16.8997 21.3644 17.3432 19.5483 17.3432 17.4826C17.3432 15.091 16.7819 13.0322 15.6525 11.3062C14.53 9.58707 12.971 8.37397 10.9755 7.67385ZM13.9272 22.3349C13.0403 23.6451 11.8208 24.5531 10.2756 25.0592C9.17393 25.4127 7.19918 25.5929 4.35831 25.5929H1.97475V8.95626H3.42983C6.38849 8.95626 8.50875 9.15035 9.79754 9.54547C11.5159 10.0654 12.8532 11.0358 13.8163 12.443C14.7795 13.8502 15.2575 15.5485 15.2575 17.538C15.2575 19.4235 14.8141 21.0248 13.9272 22.3349Z" fill="white"/>
<path d="M78.387 6.93213H76.2183V27.6032H78.387V6.93213Z" fill="white"/>
<path d="M29.919 17.3023C30.896 16.8656 31.6512 16.2279 32.1778 15.3752C32.7044 14.5226 32.9677 13.5383 32.9677 12.4153C32.9677 11.0705 32.5866 9.93366 31.8175 9.01865C31.0553 8.0967 30.0576 7.50055 28.8381 7.21634C28.0274 7.02918 26.4753 6.93213 24.1888 6.93213H20.0938V27.527H22.1516V17.9609H23.3157L30.7228 27.527H33.2657L25.8586 17.9609C27.5909 17.9609 28.942 17.739 29.919 17.3023ZM22.1516 15.9506V8.94933H25.7824C27.1959 8.94933 28.2006 9.0741 28.8104 9.30979C29.4201 9.55241 29.9121 9.95446 30.2793 10.5229C30.6535 11.0913 30.8405 11.7152 30.8405 12.4084C30.8405 13.1154 30.6535 13.7601 30.2862 14.3355C29.919 14.9108 29.4063 15.3267 28.7411 15.5901C28.0828 15.8535 27.0643 15.9853 25.6923 15.9853L22.1516 15.9506Z" fill="white"/>
</svg>
